<?xml version="1.0" encoding="UTF-8" standalone="no"?>
<!DOCTYPE svg PUBLIC "-//W3C//DTD SVG 1.1//EN" "http://www.w3.org/Graphics/SVG/1.1/DTD/svg11.dtd">
<svg width="100%" height="100%" viewBox="0 0 3509 2484" version="1.1" xmlns="http://www.w3.org/2000/svg" xmlns:xlink="http://www.w3.org/1999/xlink" xml:space="preserve" xmlns:serif="http://www.serif.com/" style="fill-rule:evenodd;clip-rule:evenodd;stroke-linejoin:round;stroke-miterlimit:2;">
    <g transform="matrix(4.16667,0,0,4.16667,0,0)">
        <rect x="26.87" y="525.561" width="3.474" height="31.403" style="fill:rgb(35,31,32);fill-rule:nonzero;"/>
        <path d="M38.511,528.9L48.121,528.9L48.121,556.964L51.55,556.964L51.55,528.9L61.07,528.9L61.07,525.561L38.511,525.561L38.511,528.9Z" style="fill:rgb(35,31,32);fill-rule:nonzero;"/>
        <path d="M100.047,524.392C94.897,524.392 92.02,527.176 92.02,531.444C92.02,534.182 92.345,535.713 94.386,538.08C89.885,539.796 87.287,542.209 87.287,547.499C87.287,553.902 90.535,557.66 98.098,557.66C102.924,557.66 105.986,556.036 108.631,552.371L114.199,557.614L116.38,555.248L110.394,549.494C111.183,547.36 111.972,544.112 112.389,541.049L109.002,541.003C108.77,543.091 108.167,545.736 107.703,547.22L101.068,540.585C105.986,538.265 108.074,536.084 108.074,531.676C108.074,527.176 105.522,524.392 100.047,524.392ZM98.237,554.366C93.087,554.366 90.813,551.86 90.813,547.452C90.813,543.74 92.669,541.884 96.613,540.539L106.033,550.097C104.084,553.16 101.717,554.366 98.237,554.366ZM95.5,531.816C95.5,528.985 97.124,527.64 100.047,527.64C103.249,527.64 104.594,529.124 104.594,531.908C104.594,535.203 102.924,536.595 98.841,538.358L97.588,537.059C95.917,535.388 95.5,533.718 95.5,531.816Z" style="fill:rgb(35,31,32);fill-rule:nonzero;"/>
        <path d="M141.754,556.964L145.228,556.964L147.484,549.069L160.569,549.069L162.96,556.919L166.389,556.919L157.952,525.561L150.327,525.561L141.754,556.964ZM152.944,528.765L155.2,528.765L159.847,545.73L148.296,545.73L152.944,528.765Z" style="fill:rgb(35,31,32);fill-rule:nonzero;"/>
        <path d="M179.203,547.489L179.203,525.561L175.728,525.561L175.728,547.489C175.728,554.663 179.654,557.371 186.512,557.371C193.641,557.371 197.566,554.618 197.566,547.489L197.566,525.561L194.137,525.561L194.137,547.489C194.137,552.407 191.204,554.032 186.512,554.032C182.09,554.032 179.203,552.362 179.203,547.489Z" style="fill:rgb(35,31,32);fill-rule:nonzero;"/>
        <path d="M205.417,528.9L215.027,528.9L215.027,556.964L218.457,556.964L218.457,528.9L227.977,528.9L227.977,525.561L205.417,525.561L205.417,528.9Z" style="fill:rgb(35,31,32);fill-rule:nonzero;"/>
        <path d="M247.017,554.122C239.752,554.122 238.263,549.791 238.263,541.443C238.263,533.096 239.843,528.404 247.017,528.404C254.1,528.404 255.77,533.141 255.77,541.443C255.77,550.061 254.236,554.122 247.017,554.122ZM247.017,557.416C256.672,557.416 259.334,552.182 259.334,541.443C259.334,531.021 256.672,525.11 247.017,525.11C237.361,525.11 234.654,531.066 234.654,541.443C234.654,551.911 237.271,557.416 247.017,557.416Z" style="fill:rgb(35,31,32);fill-rule:nonzero;"/>
        <path d="M270.253,556.964L273.727,556.964L273.727,529.622L274.358,529.622L283.427,555.837L287.263,555.837L296.377,529.622L297.008,529.622L297.008,556.964L300.483,556.964L300.483,525.561L294.482,525.561L285.368,551.956L276.299,525.561L270.253,525.561L270.253,556.964Z" style="fill:rgb(35,31,32);fill-rule:nonzero;"/>
        <path d="M310.363,556.964L313.837,556.964L316.093,549.069L329.178,549.069L331.569,556.919L334.998,556.919L326.561,525.561L318.936,525.561L310.363,556.964ZM321.553,528.765L323.809,528.765L328.456,545.73L316.905,545.73L321.553,528.765Z" style="fill:rgb(35,31,32);fill-rule:nonzero;"/>
        <path d="M340.638,528.9L350.248,528.9L350.248,556.964L353.677,556.964L353.677,528.9L363.197,528.9L363.197,525.561L340.638,525.561L340.638,528.9Z" style="fill:rgb(35,31,32);fill-rule:nonzero;"/>
        <rect x="371.364" y="525.561" width="3.474" height="31.403" style="fill:rgb(35,31,32);fill-rule:nonzero;"/>
        <path d="M404.616,525.967C404.616,525.967 398.931,525.065 395.457,525.065C389.095,525.065 385.17,527.592 385.17,533.457C385.17,539.594 388.373,541.128 394.826,542.526C399.924,543.519 401.774,544.512 401.774,548.031C401.774,552.362 399.563,554.032 395.141,554.032C391.938,554.032 385.937,553.265 385.937,553.265L385.576,556.423C385.576,556.423 391.757,557.371 395.186,557.371C401.458,557.371 405.293,554.663 405.293,547.895C405.293,542.301 402.541,540.767 396.314,539.368C390.81,538.15 388.644,537.473 388.644,533.367C388.644,529.848 391.036,528.404 395.457,528.404C398.074,528.404 404.301,529.126 404.301,529.126L404.616,525.967Z" style="fill:rgb(35,31,32);fill-rule:nonzero;"/>
        <rect x="415.625" y="525.561" width="3.475" height="31.403" style="fill:rgb(35,31,32);fill-rule:nonzero;"/>
        <path d="M431.507,556.964L450.458,556.964L450.458,553.671L434.937,553.671L434.937,542.707L447.75,542.707L447.75,539.458L434.937,539.458L434.937,528.855L450.458,528.855L450.458,525.561L431.507,525.561L431.507,556.964Z" style="fill:rgb(35,31,32);fill-rule:nonzero;"/>
        <path d="M479.424,556.964L483.259,556.964L477.258,544.196C481.274,542.977 482.988,539.954 482.988,535.127C482.988,528.359 479.74,525.561 473.017,525.561L461.466,525.561L461.466,556.964L464.94,556.964L464.94,545.098L473.784,545.098L479.424,556.964ZM479.424,535.127C479.424,539.142 477.845,541.804 473.062,541.804L464.94,541.804L464.94,528.855L473.017,528.855C477.393,528.855 479.424,530.795 479.424,535.127Z" style="fill:rgb(35,31,32);fill-rule:nonzero;"/>
        <path d="M497.065,547.489L497.065,525.561L493.591,525.561L493.591,547.489C493.591,554.663 497.517,557.371 504.375,557.371C511.504,557.371 515.429,554.618 515.429,547.489L515.429,525.561L512,525.561L512,547.489C512,552.407 509.067,554.032 504.375,554.032C499.953,554.032 497.065,552.362 497.065,547.489Z" style="fill:rgb(35,31,32);fill-rule:nonzero;"/>
        <path d="M527.521,556.964L530.995,556.964L530.995,529.622L531.943,529.622L544.576,556.964L550.667,556.964L550.667,525.561L547.193,525.561L547.193,552.904L546.2,552.904L533.748,525.561L527.521,525.561L527.521,556.964Z" style="fill:rgb(35,31,32);fill-rule:nonzero;"/>
        <path d="M575.212,544.105L580.401,544.105L580.401,553.49C580.265,553.49 576.611,554.077 573.949,554.077C566.73,554.077 565.195,549.836 565.195,541.308C565.195,532.69 566.775,528.449 573.994,528.449C578.1,528.449 583.694,529.397 583.694,529.397L583.83,526.283C583.83,526.283 578.325,525.11 573.588,525.11C564.203,525.11 561.586,530.931 561.586,541.308C561.586,551.505 564.203,557.416 573.678,557.416C577.423,557.416 583.83,556.333 583.83,556.333L583.83,540.947L575.212,540.947L575.212,544.105Z" style="fill:rgb(35,31,32);fill-rule:nonzero;"/>
        <path d="M612.616,525.967C612.616,525.967 606.931,525.065 603.457,525.065C597.095,525.065 593.17,527.592 593.17,533.457C593.17,539.594 596.373,541.128 602.825,542.526C607.924,543.519 609.773,544.512 609.773,548.031C609.773,552.362 607.563,554.032 603.141,554.032C599.937,554.032 593.937,553.265 593.937,553.265L593.576,556.423C593.576,556.423 599.757,557.371 603.186,557.371C609.458,557.371 613.293,554.663 613.293,547.895C613.293,542.301 610.541,540.767 604.314,539.368C598.809,538.15 596.644,537.473 596.644,533.367C596.644,529.848 599.035,528.404 603.457,528.404C606.074,528.404 612.3,529.126 612.3,529.126L612.616,525.967Z" style="fill:rgb(35,31,32);fill-rule:nonzero;"/>
        <path d="M619.609,528.9L629.22,528.9L629.22,556.964L632.649,556.964L632.649,528.9L642.169,528.9L642.169,525.561L619.609,525.561L619.609,528.9Z" style="fill:rgb(35,31,32);fill-rule:nonzero;"/>
        <path d="M650.561,556.964L669.511,556.964L669.511,553.671L653.99,553.671L653.99,542.707L666.804,542.707L666.804,539.458L653.99,539.458L653.99,528.855L669.511,528.855L669.511,525.561L650.561,525.561L650.561,556.964Z" style="fill:rgb(35,31,32);fill-rule:nonzero;"/>
        <path d="M698.613,553.22C698.613,553.22 693.424,554.032 690.626,554.032C683.498,554.032 682.324,549.836 682.324,541.353C682.324,532.69 683.543,528.494 690.536,528.494C693.695,528.494 698.613,529.261 698.613,529.261L698.793,526.148C698.793,526.148 694.281,525.11 690.175,525.11C680.971,525.11 678.76,530.75 678.76,541.353C678.76,551.686 680.836,557.416 690.175,557.416C693.74,557.416 698.748,556.378 698.748,556.378L698.613,553.22Z" style="fill:rgb(35,31,32);fill-rule:nonzero;"/>
        <path d="M728.572,556.964L732.001,556.964L732.001,525.561L728.572,525.561L728.572,539.458L712.69,539.458L712.69,525.561L709.216,525.561L709.216,556.964L712.69,556.964L712.69,542.797L728.572,542.797L728.572,556.964Z" style="fill:rgb(35,31,32);fill-rule:nonzero;"/>
        <path d="M744.634,556.964L748.108,556.964L748.108,529.622L749.056,529.622L761.689,556.964L767.78,556.964L767.78,525.561L764.306,525.561L764.306,552.904L763.313,552.904L750.861,525.561L744.634,525.561L744.634,556.964Z" style="fill:rgb(35,31,32);fill-rule:nonzero;"/>
        <rect x="780.188" y="525.561" width="3.474" height="31.403" style="fill:rgb(35,31,32);fill-rule:nonzero;"/>
        <path d="M813.035,556.964L817.141,556.964L807.711,541.263L816.644,525.561L812.629,525.561L804.642,539.864L799.544,540.045L799.544,525.561L796.07,525.561L796.07,556.964L799.544,556.964L799.544,543.338L804.733,543.158L813.035,556.964Z" style="fill:rgb(35,31,32);fill-rule:nonzero;"/>
        <path d="M229.008,39.76L229.008,445.158L544.185,445.158L386.268,242.882L229.008,39.76Z" style="fill:rgb(35,31,32);fill-rule:nonzero;"/>
        <path d="M612.882,482.216L612.882,76.817L297.704,76.817L455.622,279.093L612.882,482.216Z" style="fill:url(#_Linear1);"/>
        <path d="M374.929,107.147L386.798,160.832L400.995,160.832L408.676,120.646L416.511,160.832L430.708,160.832L442.501,107.147L432.958,107.147L424.347,151.523L422.873,151.523L413.874,107.303L403.556,107.303L394.712,151.523L393.16,151.523L384.471,107.147L374.929,107.147Z" style="fill:white;fill-rule:nonzero;"/>
        <path d="M449.538,160.832L483.052,160.832L483.052,152.144L458.537,152.144L458.537,138.412L478.398,138.412L478.398,129.878L458.537,129.878L458.537,115.836L483.052,115.836L483.052,107.147L449.538,107.147L449.538,160.832Z" style="fill:white;fill-rule:nonzero;"/>
        <path d="M526.23,160.832L535.384,160.832L535.384,107.147L526.23,107.147L526.23,129.18L504.042,129.18L504.042,107.147L494.965,107.147L494.965,160.832L504.042,160.832L504.042,137.946L526.23,137.946L526.23,160.832Z" style="fill:white;fill-rule:nonzero;"/>
        <path d="M550.577,160.832L559.654,160.832L559.654,118.474L560.973,118.474L578.506,160.832L592.858,160.832L592.858,107.147L583.704,107.147L583.704,149.506L582.385,149.506L565.318,107.147L550.577,107.147L550.577,160.832Z" style="fill:white;fill-rule:nonzero;"/>
    </g>
    <defs>
        <linearGradient id="_Linear1" x1="0" y1="0" x2="1" y2="0" gradientUnits="userSpaceOnUse" gradientTransform="matrix(-315.177,0,0,-315.177,612.882,76.817)"><stop offset="0" style="stop-color:rgb(81,179,181);stop-opacity:1"/><stop offset="1" style="stop-color:rgb(158,199,206);stop-opacity:1"/></linearGradient>
    </defs>
</svg>
